<?xml version="1.0" standalone="no"?><svg xmlns:xlink="http://www.w3.org/1999/xlink" xmlns="http://www.w3.org/2000/svg" viewBox="0 0 2000 1400.0079395535324" preserveAspectRatio="xMaxYMax slice"><g transform="scale(1.323258922073282)"><rect x="0" y="0" width="1511.4285714285713" height="1058" fill="#ffffff"/><rect x="0" y="0" width="151.14" height="151.14" fill="#91e2d0"/><polygon points="0,0 151.14,151.14 0,151.14" fill="#70cabf"/><rect x="151.14285714285714" y="0" width="151.14285714285714" height="151.14285714285714" fill="#ffffff"/><rect x="151.14" y="0" width="75.57" height="75.57" fill="#8ae0cd"/><polygon points="151.14,0 226.70999999999998,0 226.70999999999998,75.57" fill="#74cbc1"/><rect x="226.71" y="0" width="75.57" height="75.57" fill="#72cbc1"/><polygon points="226.71,0 302.28,75.57 226.71,75.57" fill="#b4ebdf"/><rect x="151.14" y="75.57" width="75.57" height="75.57" fill="#d1f3eb"/><polygon points="226.70999999999998,75.57 226.70999999999998,151.14 151.14,151.14" fill="#bde7e2"/><rect x="226.71" y="75.57" width="75.57" height="75.57" fill="#b4e3de"/><polygon points="226.71,75.57 302.28,75.57 226.71,151.14" fill="#c2efe5"/><rect x="302.2857142857143" y="0" width="151.14285714285714" height="151.14285714285714" fill="#ffffff"/><rect x="302.29" y="0" width="75.57" height="75.57" fill="#9fdcd5"/><polygon points="302.29,0 377.86,0 302.29,75.57" fill="#3fb8aa"/><rect x="377.86" y="0" width="75.57" height="75.57" fill="#e6f9f4"/><polygon points="377.86,0 453.43,75.57 377.86,75.57" fill="#5dc3b7"/><rect x="302.29" y="75.57" width="75.57" height="75.57" fill="#90e2d0"/><polygon points="302.29,75.57 377.86,75.57 377.86,151.14" fill="#99d9d2"/><rect x="377.86" y="75.57" width="75.57" height="75.57" fill="#3eb7aa"/><polygon points="377.86,75.57 453.43,75.57 377.86,151.14" fill="#5bd4b9"/><rect x="453.42857142857144" y="0" width="151.14285714285714" height="151.14285714285714" fill="#ffffff"/><rect x="453.43" y="0" width="75.57" height="75.57" fill="#60c4b8"/><polygon points="529,0 529,75.57 453.43,75.57" fill="#6ec9bf"/><rect x="529" y="0" width="75.57" height="75.57" fill="#dbf2ef"/><polygon points="529,0 604.5699999999999,75.57 529,75.57" fill="#daf1ef"/><rect x="453.43" y="75.57" width="75.57" height="75.57" fill="#f3fbfa"/><polygon points="453.43,75.57 529,75.57 453.43,151.14" fill="#b8e5e0"/><rect x="529" y="75.57" width="75.57" height="75.57" fill="#8bd4cb"/><polygon points="529,75.57 604.5699999999999,151.14 529,151.14" fill="#f5fbfb"/><rect x="604.57" y="0" width="151.14" height="151.14" fill="#98d9d1"/><polygon points="604.57,0 755.71,0 755.71,151.14" fill="#49cfb1"/><rect x="755.71" y="0" width="151.14" height="151.14" fill="#8cd4cc"/><polygon points="755.71,0 906.85,0 906.85,151.14" fill="#cff2ea"/><rect x="906.8571428571429" y="0" width="151.14285714285714" height="151.14285714285714" fill="#ffffff"/><rect x="906.86" y="0" width="75.57" height="75.57" fill="#c3e9e4"/><polygon points="906.86,0 982.4300000000001,75.57 906.86,75.57" fill="#d3f4ec"/><rect x="982.43" y="0" width="75.57" height="75.57" fill="#c5eae5"/><polygon points="982.43,0 1058,75.57 982.43,75.57" fill="#aae9db"/><rect x="906.86" y="75.57" width="75.57" height="75.57" fill="#3fb8aa"/><polygon points="906.86,75.57 982.4300000000001,75.57 982.4300000000001,151.14" fill="#fbfdfd"/><rect x="982.43" y="75.57" width="75.57" height="75.57" fill="#9edbd4"/><polygon points="1058,75.57 1058,151.14 982.43,151.14" fill="#98d9d1"/><rect x="1058" y="0" width="151.14" height="151.14" fill="#8cd4cc"/><polygon points="1058,0 1209.1399999999999,151.14 1058,151.14" fill="#d4f4ed"/><rect x="1209.142857142857" y="0" width="151.14285714285714" height="151.14285714285714" fill="#ffffff"/><rect x="1209.14" y="0" width="75.57" height="75.57" fill="#7ccec5"/><polygon points="1209.14,0 1284.71,75.57 1209.14,75.57" fill="#d7f4ee"/><rect x="1284.71" y="0" width="75.57" height="75.57" fill="#a1e6d7"/><polygon points="1284.71,0 1360.28,0 1360.28,75.57" fill="#cbf1e9"/><rect x="1209.14" y="75.57" width="75.57" height="75.57" fill="#5bd4b9"/><polygon points="1209.14,75.57 1284.71,75.57 1209.14,151.14" fill="#dbf6f0"/><rect x="1284.71" y="75.57" width="75.57" height="75.57" fill="#24ae9e"/><polygon points="1284.71,75.57 1360.28,75.57 1284.71,151.14" fill="#7bcec4"/><rect x="1360.29" y="0" width="151.14" height="151.14" fill="#62c5b9"/><polygon points="1360.29,0 1511.4299999999998,0 1511.4299999999998,151.14" fill="#77dbc5"/><rect x="0" y="151.14" width="151.14" height="151.14" fill="#d5f4ed"/><polygon points="0,151.14 151.14,302.28 0,302.28" fill="#39b6a7"/><rect x="151.14" y="151.14" width="151.14" height="151.14" fill="#4abcaf"/><polygon points="151.14,151.14 302.28,151.14 302.28,302.28" fill="#fdfefe"/><rect x="302.29" y="151.14" width="151.14" height="151.14" fill="#75dbc4"/><polygon points="302.29,151.14 453.43,151.14 453.43,302.28" fill="#f2faf9"/><rect x="453.42857142857144" y="151.14285714285714" width="151.14285714285714" height="151.14285714285714" fill="#ffffff"/><rect x="453.43" y="151.14" width="75.57" height="75.57" fill="#6ad8bf"/><polygon points="453.43,151.14 529,226.70999999999998 453.43,226.70999999999998" fill="#f8fcfc"/><rect x="529" y="151.14" width="75.57" height="75.57" fill="#e5f5f3"/><polygon points="529,151.14 604.5699999999999,226.70999999999998 529,226.70999999999998" fill="#3fb8aa"/><rect x="453.43" y="226.71" width="75.57" height="75.57" fill="#c8f1e7"/><polygon points="529,226.71 529,302.28 453.43,302.28" fill="#32c9a7"/><rect x="529" y="226.71" width="75.57" height="75.57" fill="#6cc8be"/><polygon points="604.5699999999999,226.71 604.5699999999999,302.28 529,302.28" fill="#3bccab"/><rect x="604.57" y="151.14" width="151.14" height="151.14" fill="#fdfefe"/><polygon points="755.71,151.14 755.71,302.28 604.57,302.28" fill="#6bd8c0"/><rect x="755.7142857142857" y="151.14285714285714" width="151.14285714285714" height="151.14285714285714" fill="#ffffff"/><rect x="755.71" y="151.14" width="75.57" height="75.57" fill="#3dccac"/><polygon points="755.71,151.14 831.28,151.14 755.71,226.70999999999998" fill="#83d1c8"/><rect x="831.29" y="151.14" width="75.57" height="75.57" fill="#4cd0b2"/><polygon points="831.29,151.14 906.8599999999999,226.70999999999998 831.29,226.70999999999998" fill="#9fe6d6"/><rect x="755.71" y="226.71" width="75.57" height="75.57" fill="#d7f5ee"/><polygon points="755.71,226.71 831.28,302.28 755.71,302.28" fill="#5dc3b7"/><rect x="831.29" y="226.71" width="75.57" height="75.57" fill="#2db1a2"/><polygon points="831.29,226.71 906.8599999999999,302.28 831.29,302.28" fill="#50beb2"/><rect x="906.8571428571429" y="151.14285714285714" width="151.14285714285714" height="151.14285714285714" fill="#ffffff"/><rect x="906.86" y="151.14" width="75.57" height="75.57" fill="#72dac3"/><polygon points="982.4300000000001,151.14 982.4300000000001,226.70999999999998 906.86,226.70999999999998" fill="#cdf2ea"/><rect x="982.43" y="151.14" width="75.57" height="75.57" fill="#e3f8f3"/><polygon points="982.43,151.14 1058,226.70999999999998 982.43,226.70999999999998" fill="#c7f0e7"/><rect x="906.86" y="226.71" width="75.57" height="75.57" fill="#a6e8d9"/><polygon points="982.4300000000001,226.71 982.4300000000001,302.28 906.86,302.28" fill="#abe9db"/><rect x="982.43" y="226.71" width="75.57" height="75.57" fill="#eaf7f6"/><polygon points="982.43,226.71 1058,302.28 982.43,302.28" fill="#e3f5f3"/><rect x="1058" y="151.14" width="151.14" height="151.14" fill="#beeee3"/><polygon points="1058,151.14 1209.1399999999999,151.14 1209.1399999999999,302.28" fill="#a6e8d9"/><rect x="1209.14" y="151.14" width="151.14" height="151.14" fill="#a5e8d9"/><polygon points="1360.2800000000002,151.14 1360.2800000000002,302.28 1209.14,302.28" fill="#fafefd"/><rect x="1360.29" y="151.14" width="151.14" height="151.14" fill="#d1f3eb"/><polygon points="1360.29,151.14 1511.4299999999998,151.14 1511.4299999999998,302.28" fill="#8ce1ce"/><rect x="0" y="302.2857142857143" width="151.14285714285714" height="151.14285714285714" fill="#ffffff"/><rect x="0" y="302.29" width="75.57" height="75.57" fill="#63d6bc"/><polygon points="0,302.29 75.57,377.86 0,377.86" fill="#caebe8"/><rect x="75.57" y="302.29" width="75.57" height="75.57" fill="#def6f1"/><polygon points="75.57,302.29 151.14,302.29 75.57,377.86" fill="#46cfb0"/><rect x="0" y="377.86" width="75.57" height="75.57" fill="#d9f5ef"/><polygon points="0,377.86 75.57,377.86 0,453.43" fill="#63d6bc"/><rect x="75.57" y="377.86" width="75.57" height="75.57" fill="#44b9ac"/><polygon points="75.57,377.86 151.14,377.86 151.14,453.43" fill="#def3f0"/><rect x="151.14285714285714" y="302.2857142857143" width="151.14285714285714" height="151.14285714285714" fill="#ffffff"/><rect x="151.14" y="302.29" width="75.57" height="75.57" fill="#32b3a4"/><polygon points="151.14,302.29 226.70999999999998,377.86 151.14,377.86" fill="#ceede9"/><rect x="226.71" y="302.29" width="75.57" height="75.57" fill="#47cfb1"/><polygon points="226.71,302.29 302.28,302.29 226.71,377.86" fill="#b4e3de"/><rect x="151.14" y="377.86" width="75.57" height="75.57" fill="#dcf6f0"/><polygon points="151.14,377.86 226.70999999999998,377.86 226.70999999999998,453.43" fill="#c7f0e7"/><rect x="226.71" y="377.86" width="75.57" height="75.57" fill="#dcf2f0"/><polygon points="226.71,377.86 302.28,453.43 226.71,453.43" fill="#95d8d0"/><rect x="302.29" y="302.29" width="151.14" height="151.14" fill="#56c0b4"/><polygon points="302.29,302.29 453.43,302.29 302.29,453.43" fill="#36b4a6"/><rect x="453.42857142857144" y="302.2857142857143" width="151.14285714285714" height="151.14285714285714" fill="#ffffff"/><rect x="453.43" y="302.29" width="75.57" height="75.57" fill="#a9dfd9"/><polygon points="453.43,302.29 529,302.29 529,377.86" fill="#effbf8"/><rect x="529" y="302.29" width="75.57" height="75.57" fill="#6bc8be"/><polygon points="604.5699999999999,302.29 604.5699999999999,377.86 529,377.86" fill="#effbf8"/><rect x="453.43" y="377.86" width="75.57" height="75.57" fill="#79dcc6"/><polygon points="529,377.86 529,453.43 453.43,453.43" fill="#69d8bf"/><rect x="529" y="377.86" width="75.57" height="75.57" fill="#cbece8"/><polygon points="529,377.86 604.5699999999999,453.43 529,453.43" fill="#7fd0c6"/><rect x="604.57" y="302.29" width="151.14" height="151.14" fill="#e0f7f2"/><polygon points="604.57,302.29 755.71,302.29 755.71,453.43" fill="#94e3d1"/><rect x="755.71" y="302.29" width="151.14" height="151.14" fill="#97e4d2"/><polygon points="755.71,302.29 906.85,453.43 755.71,453.43" fill="#d5f0ed"/><rect x="906.8571428571429" y="302.2857142857143" width="151.14285714285714" height="151.14285714285714" fill="#ffffff"/><rect x="906.86" y="302.29" width="75.57" height="75.57" fill="#b8ece1"/><polygon points="906.86,302.29 982.4300000000001,302.29 906.86,377.86" fill="#a3ddd6"/><rect x="982.43" y="302.29" width="75.57" height="75.57" fill="#82deca"/><polygon points="982.43,302.29 1058,377.86 982.43,377.86" fill="#cff2ea"/><rect x="906.86" y="377.86" width="75.57" height="75.57" fill="#5fc4b8"/><polygon points="982.4300000000001,377.86 982.4300000000001,453.43 906.86,453.43" fill="#fbfdfd"/><rect x="982.43" y="377.86" width="75.57" height="75.57" fill="#c5f0e6"/><polygon points="1058,377.86 1058,453.43 982.43,453.43" fill="#93e3d1"/><rect x="1058" y="302.29" width="151.14" height="151.14" fill="#54d2b6"/><polygon points="1058,302.29 1209.1399999999999,302.29 1058,453.43" fill="#cbf1e9"/><rect x="1209.142857142857" y="302.2857142857143" width="151.14285714285714" height="151.14285714285714" fill="#ffffff"/><rect x="1209.14" y="302.29" width="75.57" height="75.57" fill="#4ad0b2"/><polygon points="1284.71,302.29 1284.71,377.86 1209.14,377.86" fill="#9edbd4"/><rect x="1284.71" y="302.29" width="75.57" height="75.57" fill="#c7f0e7"/><polygon points="1284.71,302.29 1360.28,302.29 1360.28,377.86" fill="#84dfcb"/><rect x="1209.14" y="377.86" width="75.57" height="75.57" fill="#88e0cc"/><polygon points="1209.14,377.86 1284.71,453.43 1209.14,453.43" fill="#83dfca"/><rect x="1284.71" y="377.86" width="75.57" height="75.57" fill="#90d6ce"/><polygon points="1284.71,377.86 1360.28,377.86 1360.28,453.43" fill="#95d8d0"/><rect x="1360.2857142857142" y="302.2857142857143" width="151.14285714285714" height="151.14285714285714" fill="#ffffff"/><rect x="1360.29" y="302.29" width="75.57" height="75.57" fill="#cbece8"/><polygon points="1360.29,302.29 1435.86,302.29 1360.29,377.86" fill="#eafaf6"/><rect x="1435.86" y="302.29" width="75.57" height="75.57" fill="#79dcc6"/><polygon points="1435.86,302.29 1511.4299999999998,377.86 1435.86,377.86" fill="#5cd4b9"/><rect x="1360.29" y="377.86" width="75.57" height="75.57" fill="#42cdae"/><polygon points="1435.86,377.86 1435.86,453.43 1360.29,453.43" fill="#caebe7"/><rect x="1435.86" y="377.86" width="75.57" height="75.57" fill="#b2ebde"/><polygon points="1435.86,377.86 1511.4299999999998,377.86 1511.4299999999998,453.43" fill="#effbf8"/><rect x="0" y="453.43" width="151.14" height="151.14" fill="#7fddc8"/><polygon points="0,453.43 151.14,604.5699999999999 0,604.5699999999999" fill="#8ce1ce"/><rect x="151.14285714285714" y="453.42857142857144" width="151.14285714285714" height="151.14285714285714" fill="#ffffff"/><rect x="151.14" y="453.43" width="75.57" height="75.57" fill="#6cc8be"/><polygon points="151.14,453.43 226.70999999999998,529 151.14,529" fill="#64d6bd"/><rect x="226.71" y="453.43" width="75.57" height="75.57" fill="#caf1e8"/><polygon points="226.71,453.43 302.28,529 226.71,529" fill="#94d7d0"/><rect x="151.14" y="529" width="75.57" height="75.57" fill="#b2ebde"/><polygon points="226.70999999999998,529 226.70999999999998,604.5699999999999 151.14,604.5699999999999" fill="#b8e5e0"/><rect x="226.71" y="529" width="75.57" height="75.57" fill="#d4f4ed"/><polygon points="226.71,529 302.28,529 226.71,604.5699999999999" fill="#6fcabf"/><rect x="302.2857142857143" y="453.42857142857144" width="151.14285714285714" height="151.14285714285714" fill="#ffffff"/><rect x="302.29" y="453.43" width="75.57" height="75.57" fill="#69c7bd"/><polygon points="302.29,453.43 377.86,453.43 302.29,529" fill="#dbf2ef"/><rect x="377.86" y="453.43" width="75.57" height="75.57" fill="#e4f5f3"/><polygon points="453.43,453.43 453.43,529 377.86,529" fill="#9edbd4"/><rect x="302.29" y="529" width="75.57" height="75.57" fill="#f8fdfc"/><polygon points="302.29,529 377.86,604.5699999999999 302.29,604.5699999999999" fill="#beeee3"/><rect x="377.86" y="529" width="75.57" height="75.57" fill="#f1fbf9"/><polygon points="377.86,529 453.43,529 377.86,604.5699999999999" fill="#bdeee3"/><rect x="453.43" y="453.43" width="151.14" height="151.14" fill="#81dec9"/><polygon points="453.43,453.43 604.5699999999999,453.43 453.43,604.5699999999999" fill="#b2ebde"/><rect x="604.57" y="453.43" width="151.14" height="151.14" fill="#47bbae"/><polygon points="755.71,453.43 755.71,604.5699999999999 604.57,604.5699999999999" fill="#f7fcfc"/><rect x="755.7142857142857" y="453.42857142857144" width="151.14285714285714" height="151.14285714285714" fill="#ffffff"/><rect x="755.71" y="453.43" width="75.57" height="75.57" fill="#87e0cc"/><polygon points="755.71,453.43 831.28,453.43 831.28,529" fill="#e5f8f4"/><rect x="831.29" y="453.43" width="75.57" height="75.57" fill="#4bbcaf"/><polygon points="831.29,453.43 906.8599999999999,529 831.29,529" fill="#b9ede1"/><rect x="755.71" y="529" width="75.57" height="75.57" fill="#def6f1"/><polygon points="831.28,529 831.28,604.5699999999999 755.71,604.5699999999999" fill="#96d8d0"/><rect x="831.29" y="529" width="75.57" height="75.57" fill="#99d9d2"/><polygon points="831.29,529 906.8599999999999,604.5699999999999 831.29,604.5699999999999" fill="#8ae0cd"/><rect x="906.86" y="453.43" width="151.14" height="151.14" fill="#cbece8"/><polygon points="906.86,453.43 1058,453.43 1058,604.5699999999999" fill="#fbfefd"/><rect x="1058" y="453.43" width="151.14" height="151.14" fill="#ceede9"/><polygon points="1058,453.43 1209.1399999999999,604.5699999999999 1058,604.5699999999999" fill="#e4f8f3"/><rect x="1209.142857142857" y="453.42857142857144" width="151.14285714285714" height="151.14285714285714" fill="#ffffff"/><rect x="1209.14" y="453.43" width="75.57" height="75.57" fill="#57c1b4"/><polygon points="1209.14,453.43 1284.71,529 1209.14,529" fill="#7fd0c6"/><rect x="1284.71" y="453.43" width="75.57" height="75.57" fill="#c7f0e7"/><polygon points="1284.71,453.43 1360.28,453.43 1284.71,529" fill="#88d3ca"/><rect x="1209.14" y="529" width="75.57" height="75.57" fill="#edfaf7"/><polygon points="1284.71,529 1284.71,604.5699999999999 1209.14,604.5699999999999" fill="#f4fbfa"/><rect x="1284.71" y="529" width="75.57" height="75.57" fill="#b7ece0"/><polygon points="1284.71,529 1360.28,604.5699999999999 1284.71,604.5699999999999" fill="#68d7be"/><rect x="1360.29" y="453.43" width="151.14" height="151.14" fill="#43b9ac"/><polygon points="1360.29,453.43 1511.4299999999998,453.43 1511.4299999999998,604.5699999999999" fill="#c7eae6"/><rect x="0" y="604.57" width="151.14" height="151.14" fill="#43ceaf"/><polygon points="0,604.57 151.14,755.71 0,755.71" fill="#2db1a2"/><rect x="151.14" y="604.57" width="151.14" height="151.14" fill="#7bcec4"/><polygon points="151.14,604.57 302.28,604.57 302.28,755.71" fill="#9cdad3"/><rect x="302.2857142857143" y="604.5714285714286" width="151.14285714285714" height="151.14285714285714" fill="#ffffff"/><rect x="302.29" y="604.57" width="75.57" height="75.57" fill="#b6e4df"/><polygon points="302.29,604.57 377.86,604.57 377.86,680.1400000000001" fill="#a9e8da"/><rect x="377.86" y="604.57" width="75.57" height="75.57" fill="#8ce1ce"/><polygon points="377.86,604.57 453.43,604.57 377.86,680.1400000000001" fill="#e8f6f5"/><rect x="302.29" y="680.14" width="75.57" height="75.57" fill="#eafaf6"/><polygon points="302.29,680.14 377.86,680.14 377.86,755.71" fill="#c9ebe7"/><rect x="377.86" y="680.14" width="75.57" height="75.57" fill="#22ad9d"/><polygon points="377.86,680.14 453.43,680.14 453.43,755.71" fill="#59c2b6"/><rect x="453.43" y="604.57" width="151.14" height="151.14" fill="#b0e2dc"/><polygon points="453.43,604.57 604.5699999999999,755.71 453.43,755.71" fill="#cbf1e9"/><rect x="604.57" y="604.57" width="151.14" height="151.14" fill="#53d2b6"/><polygon points="755.71,604.57 755.71,755.71 604.57,755.71" fill="#55d2b6"/><rect x="755.71" y="604.57" width="151.14" height="151.14" fill="#b1e2dc"/><polygon points="906.85,604.57 906.85,755.71 755.71,755.71" fill="#eefbf8"/><rect x="906.8571428571429" y="604.5714285714286" width="151.14285714285714" height="151.14285714285714" fill="#ffffff"/><rect x="906.86" y="604.57" width="75.57" height="75.57" fill="#50d1b4"/><polygon points="906.86,604.57 982.4300000000001,604.57 906.86,680.1400000000001" fill="#78dcc5"/><rect x="982.43" y="604.57" width="75.57" height="75.57" fill="#64d6bd"/><polygon points="982.43,604.57 1058,680.1400000000001 982.43,680.1400000000001" fill="#fafefd"/><rect x="906.86" y="680.14" width="75.57" height="75.57" fill="#ffffff"/><polygon points="906.86,680.14 982.4300000000001,755.71 906.86,755.71" fill="#39cbab"/><rect x="982.43" y="680.14" width="75.57" height="75.57" fill="#dbf2ef"/><polygon points="1058,680.14 1058,755.71 982.43,755.71" fill="#7bddc7"/><rect x="1058" y="604.57" width="151.14" height="151.14" fill="#dbf6f0"/><polygon points="1058,604.57 1209.1399999999999,604.57 1209.1399999999999,755.71" fill="#feffff"/><rect x="1209.142857142857" y="604.5714285714286" width="151.14285714285714" height="151.14285714285714" fill="#ffffff"/><rect x="1209.14" y="604.57" width="75.57" height="75.57" fill="#81d0c7"/><polygon points="1209.14,604.57 1284.71,604.57 1284.71,680.1400000000001" fill="#5ad4b9"/><rect x="1284.71" y="604.57" width="75.57" height="75.57" fill="#ebfaf6"/><polygon points="1360.28,604.57 1360.28,680.1400000000001 1284.71,680.1400000000001" fill="#c0e7e3"/><rect x="1209.14" y="680.14" width="75.57" height="75.57" fill="#d9f1ee"/><polygon points="1284.71,680.14 1284.71,755.71 1209.14,755.71" fill="#77cdc3"/><rect x="1284.71" y="680.14" width="75.57" height="75.57" fill="#cdf2ea"/><polygon points="1360.28,680.14 1360.28,755.71 1284.71,755.71" fill="#a9e8da"/><rect x="1360.2857142857142" y="604.5714285714286" width="151.14285714285714" height="151.14285714285714" fill="#ffffff"/><rect x="1360.29" y="604.57" width="75.57" height="75.57" fill="#60c4b9"/><polygon points="1435.86,604.57 1435.86,680.1400000000001 1360.29,680.1400000000001" fill="#9de5d5"/><rect x="1435.86" y="604.57" width="75.57" height="75.57" fill="#55c0b4"/><polygon points="1435.86,604.57 1511.4299999999998,680.1400000000001 1435.86,680.1400000000001" fill="#fcfefe"/><rect x="1360.29" y="680.14" width="75.57" height="75.57" fill="#c5e9e5"/><polygon points="1435.86,680.14 1435.86,755.71 1360.29,755.71" fill="#c0efe4"/><rect x="1435.86" y="680.14" width="75.57" height="75.57" fill="#fcfefe"/><polygon points="1435.86,680.14 1511.4299999999998,755.71 1435.86,755.71" fill="#fefefe"/><rect x="0" y="755.71" width="151.14" height="151.14" fill="#edf8f7"/><polygon points="0,755.71 151.14,755.71 0,906.85" fill="#5bc2b6"/><rect x="151.14" y="755.71" width="151.14" height="151.14" fill="#a8dfd8"/><polygon points="151.14,755.71 302.28,755.71 151.14,906.85" fill="#4ebdb0"/><rect x="302.29" y="755.71" width="151.14" height="151.14" fill="#b7e4df"/><polygon points="302.29,755.71 453.43,906.85 302.29,906.85" fill="#98d9d1"/><rect x="453.42857142857144" y="755.7142857142857" width="151.14285714285714" height="151.14285714285714" fill="#ffffff"/><rect x="453.43" y="755.71" width="75.57" height="75.57" fill="#32c9a7"/><polygon points="529,755.71 529,831.28 453.43,831.28" fill="#b0eadd"/><rect x="529" y="755.71" width="75.57" height="75.57" fill="#e4f5f3"/><polygon points="529,755.71 604.5699999999999,831.28 529,831.28" fill="#def6f1"/><rect x="453.43" y="831.29" width="75.57" height="75.57" fill="#f6fdfb"/><polygon points="453.43,831.29 529,906.8599999999999 453.43,906.8599999999999" fill="#48cfb1"/><rect x="529" y="831.29" width="75.57" height="75.57" fill="#84dfcb"/><polygon points="529,831.29 604.5699999999999,831.29 529,906.8599999999999" fill="#96d8d0"/><rect x="604.5714285714286" y="755.7142857142857" width="151.14285714285714" height="151.14285714285714" fill="#ffffff"/><rect x="604.57" y="755.71" width="75.57" height="75.57" fill="#23ad9d"/><polygon points="604.57,755.71 680.1400000000001,831.28 604.57,831.28" fill="#b2e2dd"/><rect x="680.14" y="755.71" width="75.57" height="75.57" fill="#4ed1b4"/><polygon points="680.14,755.71 755.71,755.71 680.14,831.28" fill="#fbfefd"/><rect x="604.57" y="831.29" width="75.57" height="75.57" fill="#ceede9"/><polygon points="604.57,831.29 680.1400000000001,831.29 604.57,906.8599999999999" fill="#e8f9f5"/><rect x="680.14" y="831.29" width="75.57" height="75.57" fill="#54d2b6"/><polygon points="680.14,831.29 755.71,906.8599999999999 680.14,906.8599999999999" fill="#b9e5e0"/><rect x="755.71" y="755.71" width="151.14" height="151.14" fill="#8be1ce"/><polygon points="755.71,755.71 906.85,755.71 755.71,906.85" fill="#96d8d0"/><rect x="906.86" y="755.71" width="151.14" height="151.14" fill="#aae0d9"/><polygon points="906.86,755.71 1058,755.71 906.86,906.85" fill="#a5e7d9"/><rect x="1058" y="755.7142857142857" width="151.14285714285714" height="151.14285714285714" fill="#ffffff"/><rect x="1058" y="755.71" width="75.57" height="75.57" fill="#cef2ea"/><polygon points="1058,755.71 1133.57,755.71 1058,831.28" fill="#cef2ea"/><rect x="1133.57" y="755.71" width="75.57" height="75.57" fill="#bbede2"/><polygon points="1133.57,755.71 1209.1399999999999,755.71 1133.57,831.28" fill="#65c6bb"/><rect x="1058" y="831.29" width="75.57" height="75.57" fill="#4bbcaf"/><polygon points="1058,831.29 1133.57,831.29 1058,906.8599999999999" fill="#a6e8d9"/><rect x="1133.57" y="831.29" width="75.57" height="75.57" fill="#8dd5cc"/><polygon points="1133.57,831.29 1209.1399999999999,906.8599999999999 1133.57,906.8599999999999" fill="#c3e9e4"/><rect x="1209.142857142857" y="755.7142857142857" width="151.14285714285714" height="151.14285714285714" fill="#ffffff"/><rect x="1209.14" y="755.71" width="75.57" height="75.57" fill="#c8eae6"/><polygon points="1209.14,755.71 1284.71,755.71 1284.71,831.28" fill="#f1faf9"/><rect x="1284.71" y="755.71" width="75.57" height="75.57" fill="#62c5b9"/><polygon points="1284.71,755.71 1360.28,755.71 1360.28,831.28" fill="#aeeadc"/><rect x="1209.14" y="831.29" width="75.57" height="75.57" fill="#73dac3"/><polygon points="1209.14,831.29 1284.71,831.29 1209.14,906.8599999999999" fill="#d4f4ed"/><rect x="1284.71" y="831.29" width="75.57" height="75.57" fill="#c5e9e5"/><polygon points="1284.71,831.29 1360.28,831.29 1360.28,906.8599999999999" fill="#d9f1ee"/><rect x="1360.29" y="755.71" width="151.14" height="151.14" fill="#51beb2"/><polygon points="1360.29,755.71 1511.4299999999998,755.71 1511.4299999999998,906.85" fill="#77ccc2"/><rect x="0" y="906.8571428571429" width="151.14285714285714" height="151.14285714285714" fill="#ffffff"/><rect x="0" y="906.86" width="75.57" height="75.57" fill="#d5f4ed"/><polygon points="0,906.86 75.57,982.4300000000001 0,982.4300000000001" fill="#6fcabf"/><rect x="75.57" y="906.86" width="75.57" height="75.57" fill="#d0eeea"/><polygon points="75.57,906.86 151.14,982.4300000000001 75.57,982.4300000000001" fill="#99e4d3"/><rect x="0" y="982.43" width="75.57" height="75.57" fill="#96e3d2"/><polygon points="0,982.43 75.57,982.43 75.57,1058" fill="#5cd4b9"/><rect x="75.57" y="982.43" width="75.57" height="75.57" fill="#8ee1cf"/><polygon points="75.57,982.43 151.14,982.43 75.57,1058" fill="#c4efe6"/><rect x="151.14" y="906.86" width="151.14" height="151.14" fill="#baede2"/><polygon points="151.14,906.86 302.28,1058 151.14,1058" fill="#8ad3cb"/><rect x="302.2857142857143" y="906.8571428571429" width="151.14285714285714" height="151.14285714285714" fill="#ffffff"/><rect x="302.29" y="906.86" width="75.57" height="75.57" fill="#c7eae6"/><polygon points="302.29,906.86 377.86,906.86 302.29,982.4300000000001" fill="#ccece8"/><rect x="377.86" y="906.86" width="75.57" height="75.57" fill="#47bbad"/><polygon points="377.86,906.86 453.43,906.86 453.43,982.4300000000001" fill="#caebe7"/><rect x="302.29" y="982.43" width="75.57" height="75.57" fill="#6cc9be"/><polygon points="302.29,982.43 377.86,982.43 377.86,1058" fill="#fbfefd"/><rect x="377.86" y="982.43" width="75.57" height="75.57" fill="#fcfefe"/><polygon points="377.86,982.43 453.43,982.43 453.43,1058" fill="#dcf6f0"/><rect x="453.42857142857144" y="906.8571428571429" width="151.14285714285714" height="151.14285714285714" fill="#ffffff"/><rect x="453.43" y="906.86" width="75.57" height="75.57" fill="#aee1db"/><polygon points="529,906.86 529,982.4300000000001 453.43,982.4300000000001" fill="#97d8d1"/><rect x="529" y="906.86" width="75.57" height="75.57" fill="#ffffff"/><polygon points="529,906.86 604.5699999999999,906.86 604.5699999999999,982.4300000000001" fill="#64d6bd"/><rect x="453.43" y="982.43" width="75.57" height="75.57" fill="#d9f5ef"/><polygon points="529,982.43 529,1058 453.43,1058" fill="#66c6bb"/><rect x="529" y="982.43" width="75.57" height="75.57" fill="#d4efec"/><polygon points="529,982.43 604.5699999999999,982.43 604.5699999999999,1058" fill="#baede1"/><rect x="604.5714285714286" y="906.8571428571429" width="151.14285714285714" height="151.14285714285714" fill="#ffffff"/><rect x="604.57" y="906.86" width="75.57" height="75.57" fill="#69d8bf"/><polygon points="604.57,906.86 680.1400000000001,906.86 680.1400000000001,982.4300000000001" fill="#c4f0e6"/><rect x="680.14" y="906.86" width="75.57" height="75.57" fill="#8ae0cd"/><polygon points="680.14,906.86 755.71,982.4300000000001 680.14,982.4300000000001" fill="#f3fbfa"/><rect x="604.57" y="982.43" width="75.57" height="75.57" fill="#e3f8f3"/><polygon points="680.1400000000001,982.43 680.1400000000001,1058 604.57,1058" fill="#e4f5f3"/><rect x="680.14" y="982.43" width="75.57" height="75.57" fill="#f7fcfc"/><polygon points="755.71,982.43 755.71,1058 680.14,1058" fill="#b5e4de"/><rect x="755.7142857142857" y="906.8571428571429" width="151.14285714285714" height="151.14285714285714" fill="#ffffff"/><rect x="755.71" y="906.86" width="75.57" height="75.57" fill="#baede1"/><polygon points="755.71,906.86 831.28,906.86 831.28,982.4300000000001" fill="#bee7e2"/><rect x="831.29" y="906.86" width="75.57" height="75.57" fill="#ade1db"/><polygon points="831.29,906.86 906.8599999999999,982.4300000000001 831.29,982.4300000000001" fill="#feffff"/><rect x="755.71" y="982.43" width="75.57" height="75.57" fill="#36b4a6"/><polygon points="755.71,982.43 831.28,1058 755.71,1058" fill="#84dfca"/><rect x="831.29" y="982.43" width="75.57" height="75.57" fill="#fafefd"/><polygon points="831.29,982.43 906.8599999999999,982.43 906.8599999999999,1058" fill="#b3ebdf"/><rect x="906.8571428571429" y="906.8571428571429" width="151.14285714285714" height="151.14285714285714" fill="#ffffff"/><rect x="906.86" y="906.86" width="75.57" height="75.57" fill="#9ad9d2"/><polygon points="982.4300000000001,906.86 982.4300000000001,982.4300000000001 906.86,982.4300000000001" fill="#a5e7d8"/><rect x="982.43" y="906.86" width="75.57" height="75.57" fill="#d1f3eb"/><polygon points="982.43,906.86 1058,982.4300000000001 982.43,982.4300000000001" fill="#85dfcb"/><rect x="906.86" y="982.43" width="75.57" height="75.57" fill="#6bc8bd"/><polygon points="906.86,982.43 982.4300000000001,982.43 906.86,1058" fill="#e7f9f5"/><rect x="982.43" y="982.43" width="75.57" height="75.57" fill="#6fcabf"/><polygon points="982.43,982.43 1058,982.43 982.43,1058" fill="#5bc2b6"/><rect x="1058" y="906.86" width="151.14" height="151.14" fill="#73dac3"/><polygon points="1058,906.86 1209.1399999999999,906.86 1209.1399999999999,1058" fill="#b3e3dd"/><rect x="1209.142857142857" y="906.8571428571429" width="151.14285714285714" height="151.14285714285714" fill="#ffffff"/><rect x="1209.14" y="906.86" width="75.57" height="75.57" fill="#62d6bc"/><polygon points="1284.71,906.86 1284.71,982.4300000000001 1209.14,982.4300000000001" fill="#36b4a6"/><rect x="1284.71" y="906.86" width="75.57" height="75.57" fill="#47bbad"/><polygon points="1360.28,906.86 1360.28,982.4300000000001 1284.71,982.4300000000001" fill="#e5f8f4"/><rect x="1209.14" y="982.43" width="75.57" height="75.57" fill="#eef9f8"/><polygon points="1209.14,982.43 1284.71,982.43 1284.71,1058" fill="#45ceb0"/><rect x="1284.71" y="982.43" width="75.57" height="75.57" fill="#5fc4b8"/><polygon points="1360.28,982.43 1360.28,1058 1284.71,1058" fill="#80dec9"/><rect x="1360.29" y="906.86" width="151.14" height="151.14" fill="#aadfd9"/><polygon points="1360.29,906.86 1511.4299999999998,1058 1360.29,1058" fill="#52bfb2"/></g></svg>