<?xml version="1.0" standalone="no"?><svg xmlns:xlink="http://www.w3.org/1999/xlink" xmlns="http://www.w3.org/2000/svg" viewBox="0 0 2000 2000" preserveAspectRatio="xMaxYMax slice"><g transform="scale(1.890359168241966)"><rect x="0" y="0" width="1058" height="1058" fill="#ffffff"/><rect x="0" y="0" width="132.25" height="132.25" fill="#47bbae"/><polygon points="0,0 132.25,0 0,132.25" fill="#585b63"/><rect x="132.25" y="0" width="132.25" height="132.25" fill="#e1e4e0"/><polygon points="132.25,0 264.5,0 264.5,132.25" fill="#dce6e6"/><rect x="264.5" y="0" width="132.25" height="132.25" fill="#d6dad3"/><polygon points="264.5,0 396.75,0 264.5,132.25" fill="#e2f7f3"/><rect x="396.75" y="0" width="132.25" height="132.25" fill="#ffffff"/><rect x="396.75" y="0" width="66.13" height="66.13" fill="#fcfefe"/><polygon points="396.75,0 462.88,0 396.75,66.13" fill="#b3ebdf"/><rect x="462.88" y="0" width="66.13" height="66.13" fill="#6bd8c0"/><polygon points="462.88,0 529.01,66.13 462.88,66.13" fill="#acc4c3"/><rect x="396.75" y="66.13" width="66.13" height="66.13" fill="#d5d6d8"/><polygon points="396.75,66.13 462.88,66.13 462.88,132.26" fill="#d5d9d2"/><rect x="462.88" y="66.13" width="66.13" height="66.13" fill="#48bbae"/><polygon points="529.01,66.13 529.01,132.26 462.88,132.26" fill="#edf8f7"/><rect x="529" y="0" width="132.25" height="132.25" fill="#ffffff"/><rect x="529" y="0" width="66.13" height="66.13" fill="#4f525b"/><polygon points="529,0 595.13,66.13 529,66.13" fill="#fbfbfa"/><rect x="595.13" y="0" width="66.13" height="66.13" fill="#fbfdfd"/><polygon points="595.13,0 661.26,0 595.13,66.13" fill="#e3f8f3"/><rect x="529" y="66.13" width="66.13" height="66.13" fill="#d0d1d3"/><polygon points="529,66.13 595.13,132.26 529,132.26" fill="#e4e7e2"/><rect x="595.13" y="66.13" width="66.13" height="66.13" fill="#adc5c4"/><polygon points="595.13,66.13 661.26,132.26 595.13,132.26" fill="#a5e7d8"/><rect x="661.25" y="0" width="132.25" height="132.25" fill="#eceeeb"/><polygon points="661.25,0 793.5,0 793.5,132.25" fill="#7eddc8"/><rect x="793.5" y="0" width="132.25" height="132.25" fill="#cfdcdc"/><polygon points="793.5,0 925.75,132.25 793.5,132.25" fill="#84a7a7"/><rect x="925.75" y="0" width="132.25" height="132.25" fill="#ffffff"/><rect x="925.75" y="0" width="66.13" height="66.13" fill="#6cd8c0"/><polygon points="925.75,0 991.88,0 925.75,66.13" fill="#a5bfbe"/><rect x="991.88" y="0" width="66.13" height="66.13" fill="#c6f0e7"/><polygon points="991.88,0 1058.01,66.13 991.88,66.13" fill="#99e4d3"/><rect x="925.75" y="66.13" width="66.13" height="66.13" fill="#5c5f67"/><polygon points="925.75,66.13 991.88,66.13 925.75,132.26" fill="#56c0b4"/><rect x="991.88" y="66.13" width="66.13" height="66.13" fill="#63d6bd"/><polygon points="1058.01,66.13 1058.01,132.26 991.88,132.26" fill="#fefefe"/><rect x="0" y="132.25" width="132.25" height="132.25" fill="#ffffff"/><rect x="0" y="132.25" width="66.13" height="66.13" fill="#5d8c8b"/><polygon points="0,132.25 66.13,132.25 66.13,198.38" fill="#d7f5ee"/><rect x="66.13" y="132.25" width="66.13" height="66.13" fill="#64c5ba"/><polygon points="66.13,132.25 132.26,132.25 66.13,198.38" fill="#d1d6ce"/><rect x="0" y="198.38" width="66.13" height="66.13" fill="#dde1db"/><polygon points="66.13,198.38 66.13,264.51 0,264.51" fill="#adafb3"/><rect x="66.13" y="198.38" width="66.13" height="66.13" fill="#92b1b1"/><polygon points="66.13,198.38 132.26,264.51 66.13,264.51" fill="#d0dddd"/><rect x="132.25" y="132.25" width="132.25" height="132.25" fill="#ffffff"/><rect x="132.25" y="132.25" width="66.13" height="66.13" fill="#d4d9d2"/><polygon points="132.25,132.25 198.38,198.38 132.25,198.38" fill="#a2ddd6"/><rect x="198.38" y="132.25" width="66.13" height="66.13" fill="#39b5a7"/><polygon points="198.38,132.25 264.51,198.38 198.38,198.38" fill="#b8e5e0"/><rect x="132.25" y="198.38" width="66.13" height="66.13" fill="#afc6c5"/><polygon points="132.25,198.38 198.38,198.38 132.25,264.51" fill="#62656c"/><rect x="198.38" y="198.38" width="66.13" height="66.13" fill="#d4efec"/><polygon points="198.38,198.38 264.51,264.51 198.38,264.51" fill="#b4c9c9"/><rect x="264.5" y="132.25" width="132.25" height="132.25" fill="#ffffff"/><rect x="264.5" y="132.25" width="66.13" height="66.13" fill="#d3d7d0"/><polygon points="264.5,132.25 330.63,198.38 264.5,198.38" fill="#a8aaae"/><rect x="330.63" y="132.25" width="66.13" height="66.13" fill="#e7f9f5"/><polygon points="330.63,132.25 396.76,132.25 396.76,198.38" fill="#9b9da2"/><rect x="264.5" y="198.38" width="66.13" height="66.13" fill="#c4e9e5"/><polygon points="264.5,198.38 330.63,264.51 264.5,264.51" fill="#d9ddd7"/><rect x="330.63" y="198.38" width="66.13" height="66.13" fill="#e2ebea"/><polygon points="330.63,198.38 396.76,198.38 330.63,264.51" fill="#edefec"/><rect x="396.75" y="132.25" width="132.25" height="132.25" fill="#ffffff"/><rect x="396.75" y="132.25" width="66.13" height="66.13" fill="#f7f7f8"/><polygon points="396.75,132.25 462.88,132.25 396.75,198.38" fill="#41b9ab"/><rect x="462.88" y="132.25" width="66.13" height="66.13" fill="#d3f3ec"/><polygon points="462.88,132.25 529.01,132.25 529.01,198.38" fill="#d2d6cf"/><rect x="396.75" y="198.38" width="66.13" height="66.13" fill="#d7d8da"/><polygon points="396.75,198.38 462.88,198.38 462.88,264.51" fill="#d8d9db"/><rect x="462.88" y="198.38" width="66.13" height="66.13" fill="#44ceaf"/><polygon points="462.88,198.38 529.01,198.38 462.88,264.51" fill="#79dcc6"/><rect x="529" y="132.25" width="132.25" height="132.25" fill="#ffffff"/><rect x="529" y="132.25" width="66.13" height="66.13" fill="#a4e7d8"/><polygon points="529,132.25 595.13,132.25 595.13,198.38" fill="#e5e7e3"/><rect x="595.13" y="132.25" width="66.13" height="66.13" fill="#a3a5a9"/><polygon points="595.13,132.25 661.26,132.25 595.13,198.38" fill="#75dbc4"/><rect x="529" y="198.38" width="66.13" height="66.13" fill="#aeb0b3"/><polygon points="529,198.38 595.13,198.38 529,264.51" fill="#e6e9e5"/><rect x="595.13" y="198.38" width="66.13" height="66.13" fill="#4f535b"/><polygon points="595.13,198.38 661.26,264.51 595.13,264.51" fill="#49bcae"/><rect x="661.25" y="132.25" width="132.25" height="132.25" fill="#dce0da"/><polygon points="793.5,132.25 793.5,264.5 661.25,264.5" fill="#80d0c7"/><rect x="793.5" y="132.25" width="132.25" height="132.25" fill="#eff1ee"/><polygon points="793.5,132.25 925.75,132.25 925.75,264.5" fill="#8a8c92"/><rect x="925.75" y="132.25" width="132.25" height="132.25" fill="#ffffff"/><rect x="925.75" y="132.25" width="66.13" height="66.13" fill="#a1bcbb"/><polygon points="925.75,132.25 991.88,198.38 925.75,198.38" fill="#575b63"/><rect x="991.88" y="132.25" width="66.13" height="66.13" fill="#f9faf9"/><polygon points="991.88,132.25 1058.01,132.25 1058.01,198.38" fill="#99b6b5"/><rect x="925.75" y="198.38" width="66.13" height="66.13" fill="#fafbfa"/><polygon points="925.75,198.38 991.88,264.51 925.75,264.51" fill="#40cdae"/><rect x="991.88" y="198.38" width="66.13" height="66.13" fill="#f1f3f0"/><polygon points="991.88,198.38 1058.01,198.38 1058.01,264.51" fill="#c2d3d3"/><rect x="0" y="264.5" width="132.25" height="132.25" fill="#ffffff"/><rect x="0" y="264.5" width="66.13" height="66.13" fill="#c6c7ca"/><polygon points="0,264.5 66.13,264.5 66.13,330.63" fill="#9a9ca1"/><rect x="66.13" y="264.5" width="66.13" height="66.13" fill="#f5fbfb"/><polygon points="66.13,264.5 132.26,264.5 66.13,330.63" fill="#a9c2c1"/><rect x="0" y="330.63" width="66.13" height="66.13" fill="#96d8d0"/><polygon points="0,330.63 66.13,330.63 66.13,396.76" fill="#f9fdfc"/><rect x="66.13" y="330.63" width="66.13" height="66.13" fill="#9eb9b9"/><polygon points="66.13,330.63 132.26,330.63 66.13,396.76" fill="#e3e6e2"/><rect x="132.25" y="264.5" width="132.25" height="132.25" fill="#7b7d84"/><polygon points="132.25,264.5 264.5,264.5 132.25,396.75" fill="#4cbdb0"/><rect x="264.5" y="264.5" width="132.25" height="132.25" fill="#ffffff"/><rect x="264.5" y="264.5" width="66.13" height="66.13" fill="#e4ecec"/><polygon points="264.5,264.5 330.63,330.63 264.5,330.63" fill="#f5f8f8"/><rect x="330.63" y="264.5" width="66.13" height="66.13" fill="#dee2dc"/><polygon points="396.76,264.5 396.76,330.63 330.63,330.63" fill="#eef0ed"/><rect x="264.5" y="330.63" width="66.13" height="66.13" fill="#e2f4f2"/><polygon points="330.63,330.63 330.63,396.76 264.5,396.76" fill="#bbe6e1"/><rect x="330.63" y="330.63" width="66.13" height="66.13" fill="#bae5e0"/><polygon points="330.63,330.63 396.76,330.63 330.63,396.76" fill="#fafbfb"/><rect x="396.75" y="264.5" width="132.25" height="132.25" fill="#ffffff"/><rect x="396.75" y="264.5" width="66.13" height="66.13" fill="#eaece9"/><polygon points="396.75,264.5 462.88,264.5 396.75,330.63" fill="#e6e9e5"/><rect x="462.88" y="264.5" width="66.13" height="66.13" fill="#cfd0d3"/><polygon points="462.88,264.5 529.01,264.5 462.88,330.63" fill="#cecfd1"/><rect x="396.75" y="330.63" width="66.13" height="66.13" fill="#a7ded8"/><polygon points="396.75,330.63 462.88,396.76 396.75,396.76" fill="#f3fcfa"/><rect x="462.88" y="330.63" width="66.13" height="66.13" fill="#a5ded7"/><polygon points="529.01,330.63 529.01,396.76 462.88,396.76" fill="#464a53"/><rect x="529" y="264.5" width="132.25" height="132.25" fill="#ffffff"/><rect x="529" y="264.5" width="66.13" height="66.13" fill="#588887"/><polygon points="595.13,264.5 595.13,330.63 529,330.63" fill="#d3e0df"/><rect x="595.13" y="264.5" width="66.13" height="66.13" fill="#e0e9e9"/><polygon points="595.13,264.5 661.26,264.5 661.26,330.63" fill="#f1f3f1"/><rect x="529" y="330.63" width="66.13" height="66.13" fill="#b7b8bc"/><polygon points="529,330.63 595.13,330.63 595.13,396.76" fill="#bfc0c3"/><rect x="595.13" y="330.63" width="66.13" height="66.13" fill="#82deca"/><polygon points="661.26,330.63 661.26,396.76 595.13,396.76" fill="#66d7be"/><rect x="661.25" y="264.5" width="132.25" height="132.25" fill="#98e4d3"/><polygon points="661.25,264.5 793.5,396.75 661.25,396.75" fill="#98e4d3"/><rect x="793.5" y="264.5" width="132.25" height="132.25" fill="#9fdbd4"/><polygon points="793.5,264.5 925.75,396.75 793.5,396.75" fill="#e5e8e3"/><rect x="925.75" y="264.5" width="132.25" height="132.25" fill="#d0d1d3"/><polygon points="1058,264.5 1058,396.75 925.75,396.75" fill="#888b90"/><rect x="0" y="396.75" width="132.25" height="132.25" fill="#ffffff"/><rect x="0" y="396.75" width="66.13" height="66.13" fill="#91e2d0"/><polygon points="0,396.75 66.13,396.75 0,462.88" fill="#49bbae"/><rect x="66.13" y="396.75" width="66.13" height="66.13" fill="#e0e3de"/><polygon points="66.13,396.75 132.26,396.75 66.13,462.88" fill="#d2dfdf"/><rect x="0" y="462.88" width="66.13" height="66.13" fill="#e0e3de"/><polygon points="0,462.88 66.13,462.88 66.13,529.01" fill="#8b8d93"/><rect x="66.13" y="462.88" width="66.13" height="66.13" fill="#707379"/><polygon points="66.13,462.88 132.26,462.88 132.26,529.01" fill="#dbe5e5"/><rect x="132.25" y="396.75" width="132.25" height="132.25" fill="#6b6e75"/><polygon points="264.5,396.75 264.5,529 132.25,529" fill="#39b6a7"/><rect x="264.5" y="396.75" width="132.25" height="132.25" fill="#2fb2a3"/><polygon points="264.5,396.75 396.75,396.75 264.5,529" fill="#e6e9e5"/><rect x="396.75" y="396.75" width="132.25" height="132.25" fill="#ffffff"/><rect x="396.75" y="396.75" width="66.13" height="66.13" fill="#dddedf"/><polygon points="396.75,396.75 462.88,462.88 396.75,462.88" fill="#b8ece1"/><rect x="462.88" y="396.75" width="66.13" height="66.13" fill="#d7f5ee"/><polygon points="529.01,396.75 529.01,462.88 462.88,462.88" fill="#5ec3b7"/><rect x="396.75" y="462.88" width="66.13" height="66.13" fill="#c1e8e3"/><polygon points="396.75,462.88 462.88,529.01 396.75,529.01" fill="#d5d9d2"/><rect x="462.88" y="462.88" width="66.13" height="66.13" fill="#f8f8f8"/><polygon points="462.88,462.88 529.01,462.88 462.88,529.01" fill="#b1b3b6"/><rect x="529" y="396.75" width="132.25" height="132.25" fill="#ffffff"/><rect x="529" y="396.75" width="66.13" height="66.13" fill="#d4d8d1"/><polygon points="529,396.75 595.13,462.88 529,462.88" fill="#f8f9f8"/><rect x="595.13" y="396.75" width="66.13" height="66.13" fill="#fefefe"/><polygon points="595.13,396.75 661.26,396.75 661.26,462.88" fill="#f8fcfc"/><rect x="529" y="462.88" width="66.13" height="66.13" fill="#f7f8f6"/><polygon points="529,462.88 595.13,462.88 529,529.01" fill="#d2f3ec"/><rect x="595.13" y="462.88" width="66.13" height="66.13" fill="#d6e2e1"/><polygon points="595.13,462.88 661.26,529.01 595.13,529.01" fill="#e1f7f2"/><rect x="661.25" y="396.75" width="132.25" height="132.25" fill="#85888d"/><polygon points="661.25,396.75 793.5,529 661.25,529" fill="#81a5a4"/><rect x="793.5" y="396.75" width="132.25" height="132.25" fill="#5e8c8b"/><polygon points="793.5,396.75 925.75,396.75 793.5,529" fill="#f0f1ef"/><rect x="925.75" y="396.75" width="132.25" height="132.25" fill="#ffffff"/><rect x="925.75" y="396.75" width="66.13" height="66.13" fill="#97b5b4"/><polygon points="925.75,396.75 991.88,396.75 991.88,462.88" fill="#fbfefd"/><rect x="991.88" y="396.75" width="66.13" height="66.13" fill="#adc4c4"/><polygon points="991.88,396.75 1058.01,396.75 1058.01,462.88" fill="#eff1ee"/><rect x="925.75" y="462.88" width="66.13" height="66.13" fill="#26af9f"/><polygon points="925.75,462.88 991.88,529.01 925.75,529.01" fill="#e8ebe7"/><rect x="991.88" y="462.88" width="66.13" height="66.13" fill="#494c55"/><polygon points="991.88,462.88 1058.01,462.88 1058.01,529.01" fill="#769d9d"/><rect x="0" y="529" width="132.25" height="132.25" fill="#b6b7bb"/><polygon points="132.25,529 132.25,661.25 0,661.25" fill="#f5f6f4"/><rect x="132.25" y="529" width="132.25" height="132.25" fill="#ffffff"/><rect x="132.25" y="529" width="66.13" height="66.13" fill="#d0eeea"/><polygon points="198.38,529 198.38,595.13 132.25,595.13" fill="#f9fdfc"/><rect x="198.38" y="529" width="66.13" height="66.13" fill="#b4e3de"/><polygon points="264.51,529 264.51,595.13 198.38,595.13" fill="#8bd4cc"/><rect x="132.25" y="595.13" width="66.13" height="66.13" fill="#e5e8e3"/><polygon points="132.25,595.13 198.38,595.13 198.38,661.26" fill="#9db9b9"/><rect x="198.38" y="595.13" width="66.13" height="66.13" fill="#74777d"/><polygon points="198.38,595.13 264.51,595.13 198.38,661.26" fill="#eff1ee"/><rect x="264.5" y="529" width="132.25" height="132.25" fill="#ffffff"/><rect x="264.5" y="529" width="66.13" height="66.13" fill="#d3efec"/><polygon points="264.5,529 330.63,529 330.63,595.13" fill="#81a5a5"/><rect x="330.63" y="529" width="66.13" height="66.13" fill="#edefec"/><polygon points="330.63,529 396.76,595.13 330.63,595.13" fill="#a8a9ae"/><rect x="264.5" y="595.13" width="66.13" height="66.13" fill="#f5fbfa"/><polygon points="264.5,595.13 330.63,595.13 264.5,661.26" fill="#dee1dc"/><rect x="330.63" y="595.13" width="66.13" height="66.13" fill="#7fddc8"/><polygon points="396.76,595.13 396.76,661.26 330.63,661.26" fill="#779e9d"/><rect x="396.75" y="529" width="132.25" height="132.25" fill="#ffffff"/><rect x="396.75" y="529" width="66.13" height="66.13" fill="#35b4a5"/><polygon points="396.75,529 462.88,529 396.75,595.13" fill="#e9f7f5"/><rect x="462.88" y="529" width="66.13" height="66.13" fill="#31b3a4"/><polygon points="462.88,529 529.01,529 462.88,595.13" fill="#83d1c8"/><rect x="396.75" y="595.13" width="66.13" height="66.13" fill="#65d7bd"/><polygon points="462.88,595.13 462.88,661.26 396.75,661.26" fill="#fefefe"/><rect x="462.88" y="595.13" width="66.13" height="66.13" fill="#77ccc3"/><polygon points="462.88,595.13 529.01,595.13 529.01,661.26" fill="#d6dad3"/><rect x="529" y="529" width="132.25" height="132.25" fill="#ffffff"/><rect x="529" y="529" width="66.13" height="66.13" fill="#618e8d"/><polygon points="529,529 595.13,595.13 529,595.13" fill="#59c2b6"/><rect x="595.13" y="529" width="66.13" height="66.13" fill="#8de1ce"/><polygon points="595.13,529 661.26,595.13 595.13,595.13" fill="#a7e8d9"/><rect x="529" y="595.13" width="66.13" height="66.13" fill="#8e9196"/><polygon points="529,595.13 595.13,595.13 595.13,661.26" fill="#afe1db"/><rect x="595.13" y="595.13" width="66.13" height="66.13" fill="#b9cdcd"/><polygon points="595.13,595.13 661.26,661.26 595.13,661.26" fill="#fcfcfc"/><rect x="661.25" y="529" width="132.25" height="132.25" fill="#ffffff"/><rect x="661.25" y="529" width="66.13" height="66.13" fill="#97999e"/><polygon points="727.38,529 727.38,595.13 661.25,595.13" fill="#f9faf9"/><rect x="727.38" y="529" width="66.13" height="66.13" fill="#d9ddd6"/><polygon points="727.38,529 793.51,595.13 727.38,595.13" fill="#3ab6a8"/><rect x="661.25" y="595.13" width="66.13" height="66.13" fill="#ccece8"/><polygon points="661.25,595.13 727.38,595.13 661.25,661.26" fill="#bccfce"/><rect x="727.38" y="595.13" width="66.13" height="66.13" fill="#a0bbbb"/><polygon points="727.38,595.13 793.51,661.26 727.38,661.26" fill="#b5caca"/><rect x="793.5" y="529" width="132.25" height="132.25" fill="#ffffff"/><rect x="793.5" y="529" width="66.13" height="66.13" fill="#97999e"/><polygon points="793.5,529 859.63,595.13 793.5,595.13" fill="#ceede9"/><rect x="859.63" y="529" width="66.13" height="66.13" fill="#e9efef"/><polygon points="925.76,529 925.76,595.13 859.63,595.13" fill="#9c9ea3"/><rect x="793.5" y="595.13" width="66.13" height="66.13" fill="#e4f8f4"/><polygon points="793.5,595.13 859.63,595.13 859.63,661.26" fill="#e2f4f2"/><rect x="859.63" y="595.13" width="66.13" height="66.13" fill="#76ccc2"/><polygon points="859.63,595.13 925.76,661.26 859.63,661.26" fill="#dfe2dd"/><rect x="925.75" y="529" width="132.25" height="132.25" fill="#ffffff"/><rect x="925.75" y="529" width="66.13" height="66.13" fill="#b2e2dd"/><polygon points="925.75,529 991.88,529 925.75,595.13" fill="#d3f3ec"/><rect x="991.88" y="529" width="66.13" height="66.13" fill="#f9f9f8"/><polygon points="991.88,529 1058.01,529 1058.01,595.13" fill="#d9ddd6"/><rect x="925.75" y="595.13" width="66.13" height="66.13" fill="#94b3b2"/><polygon points="991.88,595.13 991.88,661.26 925.75,661.26" fill="#cef2ea"/><rect x="991.88" y="595.13" width="66.13" height="66.13" fill="#a9c2c1"/><polygon points="991.88,595.13 1058.01,595.13 991.88,661.26" fill="#caf1e8"/><rect x="0" y="661.25" width="132.25" height="132.25" fill="#6d9796"/><polygon points="0,661.25 132.25,661.25 132.25,793.5" fill="#d5f4ed"/><rect x="132.25" y="661.25" width="132.25" height="132.25" fill="#d9dadc"/><polygon points="132.25,661.25 264.5,661.25 264.5,793.5" fill="#91e2d0"/><rect x="264.5" y="661.25" width="132.25" height="132.25" fill="#c1c2c5"/><polygon points="264.5,661.25 396.75,661.25 264.5,793.5" fill="#a4bebd"/><rect x="396.75" y="661.25" width="132.25" height="132.25" fill="#ffffff"/><rect x="396.75" y="661.25" width="66.13" height="66.13" fill="#57d3b7"/><polygon points="396.75,661.25 462.88,661.25 462.88,727.38" fill="#aeeadc"/><rect x="462.88" y="661.25" width="66.13" height="66.13" fill="#b3b5b9"/><polygon points="462.88,661.25 529.01,661.25 462.88,727.38" fill="#598887"/><rect x="396.75" y="727.38" width="66.13" height="66.13" fill="#cbdad9"/><polygon points="396.75,727.38 462.88,727.38 396.75,793.51" fill="#eceeeb"/><rect x="462.88" y="727.38" width="66.13" height="66.13" fill="#bccfcf"/><polygon points="462.88,727.38 529.01,793.51 462.88,793.51" fill="#c3efe5"/><rect x="529" y="661.25" width="132.25" height="132.25" fill="#ffffff"/><rect x="529" y="661.25" width="66.13" height="66.13" fill="#585b63"/><polygon points="595.13,661.25 595.13,727.38 529,727.38" fill="#a9dfd9"/><rect x="595.13" y="661.25" width="66.13" height="66.13" fill="#e6f9f4"/><polygon points="661.26,661.25 661.26,727.38 595.13,727.38" fill="#a6ded8"/><rect x="529" y="727.38" width="66.13" height="66.13" fill="#f2f4f2"/><polygon points="595.13,727.38 595.13,793.51 529,793.51" fill="#36b4a6"/><rect x="595.13" y="727.38" width="66.13" height="66.13" fill="#59d3b8"/><polygon points="595.13,727.38 661.26,793.51 595.13,793.51" fill="#454952"/><rect x="661.25" y="661.25" width="132.25" height="132.25" fill="#ffffff"/><rect x="661.25" y="661.25" width="66.13" height="66.13" fill="#81dec9"/><polygon points="661.25,661.25 727.38,727.38 661.25,727.38" fill="#9de5d5"/><rect x="727.38" y="661.25" width="66.13" height="66.13" fill="#f2f6f5"/><polygon points="727.38,661.25 793.51,661.25 793.51,727.38" fill="#4e515a"/><rect x="661.25" y="727.38" width="66.13" height="66.13" fill="#e8f6f5"/><polygon points="727.38,727.38 727.38,793.51 661.25,793.51" fill="#8dadad"/><rect x="727.38" y="727.38" width="66.13" height="66.13" fill="#d0d1d3"/><polygon points="793.51,727.38 793.51,793.51 727.38,793.51" fill="#d1d6cf"/><rect x="793.5" y="661.25" width="132.25" height="132.25" fill="#a2ddd6"/><polygon points="793.5,661.25 925.75,661.25 925.75,793.5" fill="#c2e8e4"/><rect x="925.75" y="661.25" width="132.25" height="132.25" fill="#ffffff"/><rect x="925.75" y="661.25" width="66.13" height="66.13" fill="#ebedea"/><polygon points="925.75,661.25 991.88,661.25 925.75,727.38" fill="#b0e2dc"/><rect x="991.88" y="661.25" width="66.13" height="66.13" fill="#a0bbba"/><polygon points="991.88,661.25 1058.01,727.38 991.88,727.38" fill="#e9ebe8"/><rect x="925.75" y="727.38" width="66.13" height="66.13" fill="#676a71"/><polygon points="925.75,727.38 991.88,793.51 925.75,793.51" fill="#73767d"/><rect x="991.88" y="727.38" width="66.13" height="66.13" fill="#4dbdb0"/><polygon points="991.88,727.38 1058.01,727.38 1058.01,793.51" fill="#9b9da1"/><rect x="0" y="793.5" width="132.25" height="132.25" fill="#ffffff"/><rect x="0" y="793.5" width="66.13" height="66.13" fill="#d4d8d1"/><polygon points="66.13,793.5 66.13,859.63 0,859.63" fill="#41454e"/><rect x="66.13" y="793.5" width="66.13" height="66.13" fill="#81d0c7"/><polygon points="66.13,793.5 132.26,793.5 66.13,859.63" fill="#9a9ca1"/><rect x="0" y="859.63" width="66.13" height="66.13" fill="#ecf1f1"/><polygon points="0,859.63 66.13,859.63 0,925.76" fill="#64908f"/><rect x="66.13" y="859.63" width="66.13" height="66.13" fill="#c2d3d3"/><polygon points="66.13,859.63 132.26,859.63 132.26,925.76" fill="#cfedea"/><rect x="132.25" y="793.5" width="132.25" height="132.25" fill="#4dd0b3"/><polygon points="132.25,793.5 264.5,793.5 132.25,925.75" fill="#709998"/><rect x="264.5" y="793.5" width="132.25" height="132.25" fill="#ffffff"/><rect x="264.5" y="793.5" width="66.13" height="66.13" fill="#e9ebe7"/><polygon points="264.5,793.5 330.63,859.63 264.5,859.63" fill="#d9ddd6"/><rect x="330.63" y="793.5" width="66.13" height="66.13" fill="#ebfaf6"/><polygon points="330.63,793.5 396.76,859.63 330.63,859.63" fill="#70dac2"/><rect x="264.5" y="859.63" width="66.13" height="66.13" fill="#f3f4f2"/><polygon points="330.63,859.63 330.63,925.76 264.5,925.76" fill="#799f9f"/><rect x="330.63" y="859.63" width="66.13" height="66.13" fill="#dedee0"/><polygon points="330.63,859.63 396.76,859.63 396.76,925.76" fill="#55c0b4"/><rect x="396.75" y="793.5" width="132.25" height="132.25" fill="#b3e3dd"/><polygon points="529,793.5 529,925.75 396.75,925.75" fill="#fbfcfb"/><rect x="529" y="793.5" width="132.25" height="132.25" fill="#8dadad"/><polygon points="529,793.5 661.25,793.5 661.25,925.75" fill="#f4f4f5"/><rect x="661.25" y="793.5" width="132.25" height="132.25" fill="#ffffff"/><rect x="661.25" y="793.5" width="66.13" height="66.13" fill="#d6e2e2"/><polygon points="661.25,793.5 727.38,859.63 661.25,859.63" fill="#c8f1e8"/><rect x="727.38" y="793.5" width="66.13" height="66.13" fill="#9de5d5"/><polygon points="793.51,793.5 793.51,859.63 727.38,859.63" fill="#c5eae6"/><rect x="661.25" y="859.63" width="66.13" height="66.13" fill="#e2e5e0"/><polygon points="661.25,859.63 727.38,859.63 661.25,925.76" fill="#6bd8c0"/><rect x="727.38" y="859.63" width="66.13" height="66.13" fill="#e4e7e2"/><polygon points="727.38,859.63 793.51,925.76 727.38,925.76" fill="#c1c2c5"/><rect x="793.5" y="793.5" width="132.25" height="132.25" fill="#d3d4d6"/><polygon points="925.75,793.5 925.75,925.75 793.5,925.75" fill="#dde0db"/><rect x="925.75" y="793.5" width="132.25" height="132.25" fill="#a3a4a9"/><polygon points="1058,793.5 1058,925.75 925.75,925.75" fill="#f7f8f7"/><rect x="0" y="925.75" width="132.25" height="132.25" fill="#e9f9f6"/><polygon points="0,925.75 132.25,925.75 0,1058" fill="#9ddbd3"/><rect x="132.25" y="925.75" width="132.25" height="132.25" fill="#6fcabf"/><polygon points="132.25,925.75 264.5,925.75 132.25,1058" fill="#e6e7e8"/><rect x="264.5" y="925.75" width="132.25" height="132.25" fill="#9ce5d5"/><polygon points="264.5,925.75 396.75,1058 264.5,1058" fill="#afc6c5"/><rect x="396.75" y="925.75" width="132.25" height="132.25" fill="#ffffff"/><rect x="396.75" y="925.75" width="66.13" height="66.13" fill="#3fb8aa"/><polygon points="396.75,925.75 462.88,925.75 462.88,991.88" fill="#7d8086"/><rect x="462.88" y="925.75" width="66.13" height="66.13" fill="#cef2ea"/><polygon points="462.88,925.75 529.01,925.75 462.88,991.88" fill="#6e7178"/><rect x="396.75" y="991.88" width="66.13" height="66.13" fill="#72dac3"/><polygon points="396.75,991.88 462.88,991.88 396.75,1058.01" fill="#a4bebd"/><rect x="462.88" y="991.88" width="66.13" height="66.13" fill="#b8e4df"/><polygon points="462.88,991.88 529.01,991.88 462.88,1058.01" fill="#26ae9f"/><rect x="529" y="925.75" width="132.25" height="132.25" fill="#ffffff"/><rect x="529" y="925.75" width="66.13" height="66.13" fill="#7c7f85"/><polygon points="529,925.75 595.13,991.88 529,991.88" fill="#a5bfbf"/><rect x="595.13" y="925.75" width="66.13" height="66.13" fill="#d2eeeb"/><polygon points="595.13,925.75 661.26,991.88 595.13,991.88" fill="#e9ebe8"/><rect x="529" y="991.88" width="66.13" height="66.13" fill="#daded8"/><polygon points="529,991.88 595.13,1058.01 529,1058.01" fill="#fefefe"/><rect x="595.13" y="991.88" width="66.13" height="66.13" fill="#82dec9"/><polygon points="661.26,991.88 661.26,1058.01 595.13,1058.01" fill="#fdfdfd"/><rect x="661.25" y="925.75" width="132.25" height="132.25" fill="#5ad4b8"/><polygon points="661.25,925.75 793.5,1058 661.25,1058" fill="#f3f4f2"/><rect x="793.5" y="925.75" width="132.25" height="132.25" fill="#95b3b3"/><polygon points="793.5,925.75 925.75,925.75 793.5,1058" fill="#f2f4f1"/><rect x="925.75" y="925.75" width="132.25" height="132.25" fill="#f9fdfd"/><polygon points="1058,925.75 1058,1058 925.75,1058" fill="#b2e2dd"/></g></svg>